<!DOCTYPE svg PUBLIC "-//W3C//DTD SVG 1.0//EN"
	"http://www.w3.org/TR/2001/REC-SVG-20010904/DTD/svg10.dtd">
	
<svg xmlns="http://www.w3.org/2000/svg" xmlns:xlink="http://www.w3.org/1999/xlink" width="100" height="540" x="0" y="0">
	
	<rect width="100" height="540" stroke="black" fill="none" />

	<!-- rect width="10" height="300" fill="red" x="5" y="40" / -->
	<!-- rect width="10" height="300" fill="blue" x="15" y="40" / -->	
	<g id="70_dots" transform="translate(10,30)">
		<g id="10_dots">
			<rect width="10" height="57" fill="#ff6666" x="-5" y="-5" />
			<rect width="10" height="57" fill="#6666ff" x="5" y="-5" />
			<g id="5_dots">
				<circle r="3" cx="0" cy="0" fill="black" id="dot" />
				<use xlink:href="#dot" transform="translate(0,10)" />
				<use xlink:href="#dot" transform="translate(0,20)" />
				<use xlink:href="#dot" transform="translate(0,30)" />
				<use xlink:href="#dot" transform="translate(0,40)" />
			</g>
			<use xlink:href="#5_dots" transform="translate(10,0)" />
		</g>
		
		<use xlink:href="#10_dots" transform="translate(0,57)" />
		<use xlink:href="#10_dots" transform="translate(0,114)" />
		<use xlink:href="#10_dots" transform="translate(0,171)" />	
		<use xlink:href="#10_dots" transform="translate(0,228)" />
		<use xlink:href="#10_dots" transform="translate(0,285)" />
		<use xlink:href="#10_dots" transform="translate(0,342)" />
	</g>
	
	<use xlink:href="#70_dots" transform="translate(35,0)" />
	<use xlink:href="#70_dots" transform="translate(70,0)" />

	<rect width="10" height="10" x="-5" y="-5" fill="#ff6666" />
	<rect width="10" height="10" x="5" y="-5" fill="#6666ff" />
	<use xlink:href="#dot" />
	<use xlink:href="#dot" transform="translate(10,0)" />
	
</svg>
